# Blender 4.3.2
# www.blender.org
mtllib Tile0.mtl
o Cube
v 0.000000 -1.000000 0.100000
v 0.000000 -1.000000 -0.100000
v 0.000000 1.000000 0.100000
v 0.000000 1.000000 -0.100000
v 2.000000 -1.000000 0.100000
v 2.000000 -1.000000 -0.100000
v 2.000000 1.000000 0.100000
v 2.000000 1.000000 -0.100000
v 0.107066 0.892934 0.100000
v 1.892934 0.892934 0.100000
v 0.107066 -0.892934 0.100000
v 1.892934 -0.892934 0.100000
v 0.216863 0.783137 0.000000
v 1.783137 0.783137 0.000000
v 0.216863 -0.783137 0.000000
v 1.783137 -0.783137 0.000000
vn -0.0000 -0.0000 1.0000
vn -0.0000 1.0000 -0.0000
vn 1.0000 -0.0000 -0.0000
vn -0.0000 -0.0000 -1.0000
vn -1.0000 -0.0000 -0.0000
vn -0.0000 -1.0000 -0.0000
vn -0.6734 -0.0000 0.7393
vn -0.0000 -0.6734 0.7393
vn -0.0000 0.6734 0.7393
vn 0.6734 -0.0000 0.7393
vt 0.327495 0.005034
vt 0.022113 0.023000
vt 0.004840 0.005034
vt 0.659341 0.005034
vt 0.337168 0.340636
vt 0.337168 0.005034
vt 0.669006 0.340636
vt 0.991179 0.005034
vt 0.991179 0.340636
vt 0.004840 0.686306
vt 0.327495 0.350704
vt 0.327495 0.686306
vt 0.337168 0.686306
vt 0.659341 0.350704
vt 0.659341 0.686306
vt 0.991179 0.350704
vt 0.669006 0.686306
vt 0.669006 0.350704
vt 0.997569 0.995505
vt 0.835515 0.714259
vt 0.997569 0.695835
vt 0.327495 0.340636
vt 0.310222 0.023000
vt 0.022113 0.322670
vt 0.004840 0.340636
vt 0.310222 0.322670
vt 0.256474 0.958104
vt 0.003790 0.695282
vt 0.256473 0.695282
vt 0.668598 0.695835
vt 0.830653 0.977081
vt 0.668598 0.995505
vt 0.496820 0.995505
vt 0.334766 0.714259
vt 0.496820 0.695835
vt 0.663737 0.995505
vt 0.501682 0.714259
vt 0.663737 0.695835
vt 0.659341 0.340636
vt 0.669006 0.005034
vt 0.004840 0.350704
vt 0.337168 0.350704
vt 0.991179 0.686306
vt 0.835515 0.977081
vt 0.003790 0.958104
vt 0.830653 0.714259
vt 0.334766 0.977081
vt 0.501682 0.977081
s 1
f 1/1/1 9/2/1 3/3/1
f 3/4/2 8/5/2 4/6/2
f 7/7/3 6/8/3 8/9/3
f 2/10/4 8/11/4 6/12/4
f 1/13/5 4/14/5 2/15/5
f 5/16/6 2/17/6 6/18/6
f 10/19/7 16/20/7 12/21/7
f 5/22/1 11/23/1 1/1/1
f 3/3/1 10/24/1 7/25/1
f 7/25/1 12/26/1 5/22/1
f 16/27/1 13/28/1 15/29/1
f 9/30/8 14/31/8 10/32/8
f 12/33/9 15/34/9 11/35/9
f 11/36/10 13/37/10 9/38/10
f 1/1/1 11/23/1 9/2/1
f 3/4/2 7/39/2 8/5/2
f 7/7/3 5/40/3 6/8/3
f 2/10/4 4/41/4 8/11/4
f 1/13/5 3/42/5 4/14/5
f 5/16/6 1/43/6 2/17/6
f 10/19/7 14/44/7 16/20/7
f 5/22/1 12/26/1 11/23/1
f 3/3/1 9/2/1 10/24/1
f 7/25/1 10/24/1 12/26/1
f 16/27/1 14/45/1 13/28/1
f 9/30/8 13/46/8 14/31/8
f 12/33/9 16/47/9 15/34/9
f 11/36/10 15/48/10 13/37/10
